# xmcd
#
# Track frame offsets: 
#        183
#        12828
#        22363
#        34670
#        47278
#        59643
#        72123
#        96638
#        115905
#        127030
#        136003
#        145970
#        156193
#        167173
#
# Disc length: 2544 seconds
#
# Revision: 3
# Processed by: cddbd v1.5.2PL0 Copyright (c) Steve Scherf et al.
# Submitted via: ExactAudioCopyFreeDBPlugin 1.0
#
DISCID=c809ee0e
DTITLE=James Brown - Godfather Of Soul
DYEAR=1993
DGENRE=Soul
TTITLE0=It's A Man's Man's Man's World
TTITLE1=Papa's Got A Brand New Bag
TTITLE2=Nature Boy
TTITLE3=Think
TTITLE4=Signed, Sealed And Delivered
TTITLE5=Please Please Please
TTITLE6=How Do You Stop
TTITLE7=(Call Me) Super Bad
TTITLE8=Spinning Wheel
TTITLE9=Mona Lisa
TTITLE10=This Old Heart
TTITLE11=Good Good Lovin'
TTITLE12=Bewildered
TTITLE13=(Get Up I Feel Like Being A) Sex Machine
EXTD=
EXTT0=
EXTT1=
EXTT2=
EXTT3=
EXTT4=
EXTT5=
EXTT6=
EXTT7=
EXTT8=
EXTT9=
EXTT10=
EXTT11=
EXTT12=
EXTT13=
PLAYORDER=
